<?xml version="1.0" encoding="UTF-8" standalone="no"?>
<!-- Created with Inkscape (http://www.inkscape.org/) -->

<svg
   xmlns:dc="http://purl.org/dc/elements/1.1/"
   xmlns:cc="http://creativecommons.org/ns#"
   xmlns:rdf="http://www.w3.org/1999/02/22-rdf-syntax-ns#"
   xmlns:svg="http://www.w3.org/2000/svg"
   xmlns="http://www.w3.org/2000/svg"
   xmlns:xlink="http://www.w3.org/1999/xlink"
   xmlns:sodipodi="http://sodipodi.sourceforge.net/DTD/sodipodi-0.dtd"
   xmlns:inkscape="http://www.inkscape.org/namespaces/inkscape"
   width="209.13271mm"
   height="52.726856mm"
   viewBox="0 0 209.13271 52.726856"
   version="1.1"
   id="svg8"
   style="enable-background:new"
   inkscape:version="0.92.3 (2405546, 2018-03-11)"
   sodipodi:docname="drwellsconsulting_logo_image.svg">
  <defs
     id="defs2">
    <linearGradient
       inkscape:collect="always"
       id="linearGradient887">
      <stop
         style="stop-color:#b8a970;stop-opacity:0.70351762"
         offset="0"
         id="stop883" />
      <stop
         style="stop-color:#fff0b1;stop-opacity:0.46231157"
         offset="1"
         id="stop885" />
    </linearGradient>
    <radialGradient
       inkscape:collect="always"
       xlink:href="#linearGradient887"
       id="radialGradient889"
       cx="129.20795"
       cy="57.770905"
       fx="129.20795"
       fy="57.770905"
       r="104.56042"
       gradientTransform="matrix(0.67596488,-0.00192749,7.7362055e-4,0.27130555,51.801937,34.689399)"
       gradientUnits="userSpaceOnUse" />
  </defs>
  <sodipodi:namedview
     id="base"
     pagecolor="#ffffff"
     bordercolor="#666666"
     borderopacity="1.0"
     inkscape:pageopacity="0.0"
     inkscape:pageshadow="2"
     inkscape:zoom="1.4142136"
     inkscape:cx="347.72317"
     inkscape:cy="55.916535"
     inkscape:document-units="mm"
     inkscape:current-layer="layer3"
     showgrid="false"
     inkscape:snap-global="false"
     fit-margin-top="0"
     fit-margin-left="0"
     fit-margin-right="0"
     fit-margin-bottom="0"
     inkscape:window-width="1920"
     inkscape:window-height="1017"
     inkscape:window-x="1272"
     inkscape:window-y="-8"
     inkscape:window-maximized="1" />
  <metadata
     id="metadata5">
    <rdf:RDF>
      <cc:Work
         rdf:about="">
        <dc:format>image/svg+xml</dc:format>
        <dc:type
           rdf:resource="http://purl.org/dc/dcmitype/StillImage" />
        <dc:title></dc:title>
      </cc:Work>
    </rdf:RDF>
  </metadata>
  <g
     inkscape:groupmode="layer"
     id="layer2"
     inkscape:label="Background"
     style="display:inline"
     transform="translate(-1.0839204,-21.077794)"
     sodipodi:insensitive="true">
    <rect
       style="opacity:1;fill:url(#radialGradient889);fill-opacity:1;stroke:#000000;stroke-width:0.1;stroke-miterlimit:4;stroke-dasharray:none;stroke-opacity:1"
       id="rect881"
       width="209.02084"
       height="52.626858"
       x="1.1339204"
       y="21.127794"
       ry="0" />
  </g>
  <g
     inkscape:groupmode="layer"
     id="layer3"
     inkscape:label="Layer 1"
     style="display:inline"
     transform="translate(-1.0839204,-21.077794)"
     sodipodi:insensitive="true">
    <path
       style="display:inline;fill:#a2bbc6;fill-opacity:1;stroke:none;stroke-width:0.99999994px;stroke-linecap:butt;stroke-linejoin:miter;stroke-opacity:1"
       d="m 608.17969,160.70312 c -1.09968,0.0397 -2.16212,0.55051 -2.93555,0.77149 -0.88388,0.25255 -10.22825,-0.12686 -11.61719,0.25195 -1.38897,0.37881 -1.38828,1.26319 -2.39843,1.89453 -1.01016,0.63135 -4.79906,-0.63213 -8.08204,-0.50586 -3.28301,0.12627 -17.67831,4.92461 -19.95117,5.42969 -2.27285,0.50507 -30.93554,2.7793 -30.93554,2.7793 l -341.29437,15.11607 342.00921,20.47377 c 0,0 28.66269,2.27228 30.93555,2.77735 2.27285,0.50508 16.66816,5.30341 19.95117,5.42968 3.28297,0.12628 7.06992,-1.13721 8.08008,-0.50586 1.01015,0.63134 1.01141,1.51572 2.40039,1.89454 1.38894,0.37881 10.73135,-6e-4 11.61523,0.25195 0.88392,0.25255 2.14746,0.88408 3.41016,0.75781 1.2627,-0.12627 7.95489,-2.52471 9.72265,-2.39844 1.76776,0.12628 1.38899,1.64131 5.05078,1.76758 3.6618,0.12628 9.47016,-2.9043 14.77344,-2.90429 5.30332,0 9.0918,1.13671 9.0918,1.13671 0,0 9.34367,-2.27275 14.01562,-2.14648 4.67199,0.12627 11.36389,0.7577 16.16211,0.37891 4.79823,-0.37882 11.86963,-1.38994 16.28907,-1.26368 4.4194,0.12628 12.2475,-1.01025 17.55078,-0.3789 5.30332,0.63134 4.67325,1.01045 7.45117,1.13672 2.77791,0.12627 34.21875,-2.65235 34.21875,-2.65235 l 40.67233,-4.21404 0.13678,-34.22459 -41.52394,-3.71566 c 0,0 -31.44084,-2.77862 -34.21875,-2.65235 -2.77792,0.12627 -2.14786,0.50538 -7.45118,1.13672 -5.30328,0.63135 -13.13138,-0.50518 -17.55078,-0.37891 -4.41944,0.12626 -11.49084,-0.88486 -16.28906,-1.26367 -4.79822,-0.3788 -11.49012,0.25263 -16.16211,0.37891 -4.67195,0.12627 -14.01562,-2.14649 -14.01562,-2.14649 0,0 -3.78848,1.13672 -9.0918,1.13672 -5.30328,0 -11.11164,-3.03057 -14.77344,-2.90429 -3.66179,0.12627 -3.28302,1.6413 -5.05078,1.76757 -1.76776,0.12627 -8.45995,-2.27216 -9.72266,-2.39843 -0.15783,-0.0158 -0.31556,-0.0194 -0.47265,-0.0137 z"
       transform="scale(0.26458333)"
       id="path894"
       inkscape:connector-curvature="0"
       sodipodi:nodetypes="ccccscccccccscsccccscccsccccscccccscsccc" />
  </g>
  <g
     inkscape:groupmode="layer"
     id="layer4"
     inkscape:label="Layer 2"
     style="display:inline"
     transform="translate(-1.0839204,-21.077794)"
     sodipodi:insensitive="true">
    <path
       style="fill:#81a1b3;fill-opacity:0.99497483;stroke:none;stroke-width:0.99999994px;stroke-linecap:butt;stroke-linejoin:miter;stroke-opacity:1"
       d="m 430.15625,141.93945 c -1.27232,0 -2.70088,0.0449 -3.90625,0.0449 -2.4107,0 -10.09012,1.60714 -11.07227,1.875 -0.98214,0.26785 -2.14228,-0.0898 -3.03515,-0.0898 -0.89288,0 -5.80248,3.66016 -6.69531,3.66016 -0.89288,0 -6.16097,-3.92857 -7.23243,-4.375 -1.07142,-0.44643 -13.48299,0.53711 -14.82226,0.53711 -1.33928,0 -5.08872,-0.53684 -6.16016,-0.80469 -1.07142,-0.26786 -4.73214,0.26868 -6.875,0.44727 -2.14285,0.17858 -6.69586,-0.17859 -8.03515,0 -1.33929,0.17856 -3.12556,0.71456 -4.46485,0.98242 -1.33928,0.26789 -3.12556,-0.1794 -5.08984,0.17773 -1.96429,0.35715 -17.39649,4.08594 -17.39649,4.08594 L 196.24851,123.48831 c 0,0 -18.87074,-3.15445 -12.55729,-1.89176 5.80838,2.02031 -7.50652,-7.70013 -24.17404,-6.94252 -40.10272,1.82363 -152.898876,72.23047 -152.898876,72.23047 0,0 127.329046,77.99905 145.259256,75.97874 5.80838,1.51523 23.53588,-1.0454 32.62725,-8.369 12.31716,0.89573 22.4636,-2.43232 22.02064,-3.31824 l 128.59174,-22.00606 c 0,0 15.43415,3.72684 17.39843,4.08399 1.96429,0.35712 3.75057,-0.0882 5.08985,0.17968 1.33929,0.26786 3.1236,0.80386 4.46289,0.98243 1.33929,0.17858 5.89426,-0.17859 8.03711,0 2.14286,0.17858 5.80358,0.71317 6.875,0.44531 1.07143,-0.26786 4.82088,-0.80274 6.16015,-0.80274 1.33928,0 13.7489,0.98159 14.82032,0.53516 1.07146,-0.44643 6.33954,-4.375 7.23242,-4.375 0.89284,0 5.80439,3.66211 6.69726,3.66211 0.89288,0 2.05301,-0.3577 3.03516,-0.0898 0.98215,0.26785 8.66157,1.875 11.07227,1.875 2.41073,0 5.7143,0.17747 6.875,-0.17969 1.16073,-0.35713 2.767,-1.51703 5.17773,-2.05274 2.4107,-0.53572 2.50029,-0.089 4.10742,-0.89257 1.60713,-0.80357 4.91153,-2.76898 7.32227,-2.67969 2.41069,0.0893 10.53431,1.34041 16.33789,-0.44531 5.80358,-1.78571 6.87553,-1.87501 8.21484,-3.125 1.33928,-1.25 4.10689,-3.66183 6.51758,-4.55469 2.41074,-0.89286 19.73327,-3.92885 20.80469,-4.73242 1.07142,-0.80357 1.96261,-2.14203 3.48047,-2.67774 1.51782,-0.53572 5.44724,-0.4467 6.07226,-0.98242 0.62499,-0.53571 0.71482,-0.89285 2.58985,-1.25 1.87498,-0.35713 17.67886,-3.39313 21.60742,-4.10742 3.92859,-0.71429 18.03461,-6.07171 29.82031,-9.10742 11.7857,-3.03572 44.64227,-8.74832 49.28516,-9.10547 4.20435,-0.3234 18.18657,-1.03309 21.04883,-1.17774 l 1.79296,-0.004 c 0,0 -1.06094,-0.0247 -1.19335,-0.0274 0.13906,-0.007 1.23242,-0.0644 1.23242,-0.0644 l -3.70118,0.006 c -4.63309,-0.10007 -15.17286,-0.34023 -18.92578,-0.62891 -4.64288,-0.35715 -37.5014,-6.0717 -49.28711,-9.10742 -11.7857,-3.03571 -25.89172,-8.39313 -29.82031,-9.10742 -3.92855,-0.71429 -19.73243,-3.75029 -21.60742,-4.10742 -1.87502,-0.35715 -1.96486,-0.7143 -2.58984,-1.25 -0.62502,-0.53572 -4.5525,-0.44475 -6.07032,-0.98047 -1.51785,-0.53571 -2.411,-1.87612 -3.48242,-2.67969 -1.07142,-0.80357 -18.39395,-3.83956 -20.80469,-4.73242 -2.41069,-0.89286 -5.1783,-3.30274 -6.51757,-4.55273 -1.33932,-1.25 -2.40932,-1.3393 -8.21289,-3.125 -5.80358,-1.78573 -13.92915,-0.53658 -16.33985,-0.44727 -2.41073,0.0893 -5.71513,-1.87417 -7.32226,-2.67773 -1.60713,-0.80356 -1.69673,-0.35686 -4.10743,-0.89258 -2.41073,-0.53571 -4.017,-1.69756 -5.17773,-2.05469 -0.58035,-0.17858 -1.69643,-0.22266 -2.96875,-0.22266 z"
       transform="scale(0.26458333)"
       id="path931"
       inkscape:connector-curvature="0"
       sodipodi:nodetypes="cscsscscccccccccccccccccccscsscscccccccsccccscccccccsccccsccccsccsc" />
  </g>
  <g
     inkscape:groupmode="layer"
     id="layer5"
     inkscape:label="Layer 3"
     style="display:inline"
     transform="translate(-1.0839204,-21.077794)"
     sodipodi:insensitive="true">
    <path
       style="fill:#6792aa;fill-opacity:1;stroke:none;stroke-width:0.99999994px;stroke-linecap:butt;stroke-linejoin:miter;stroke-opacity:1"
       d="m 391.21875,148.22852 c -8.04357,0.27466 -39.43359,4.82617 -39.43359,4.82617 L 5.6503906,188.68164 H 5.4960938 l 0.076172,0.008 -0.054687,0.006 H 5.6289062 L 351.78516,224.57812 c 0,0 35.71483,5.17941 40.71484,4.82227 4.99997,-0.35713 15,-4.46484 15,-4.46484 0,0 14.99918,0.71402 18.92773,-0.35743 3.9286,-1.07143 14.28682,-5.3563 15.17969,-6.42773 0.89284,-1.07143 10.21978,-16.54399 14.64258,-18.21484 7.63865,-2.88571 42.55701,-10.24573 46.08398,-10.98633 h 1.23829 c 0,0 -0.57389,-0.12292 -0.6211,-0.13281 0.0471,-0.01 0.6211,-0.13086 0.6211,-0.13086 h -1.24024 c -3.53157,-0.74158 -38.44395,-8.10084 -46.08203,-10.98633 -4.4228,-1.67085 -13.74974,-17.14342 -14.64258,-18.21484 -0.89287,-1.07144 -11.25109,-5.35826 -15.17969,-6.42969 -3.92855,-1.07145 -18.92773,-0.35547 -18.92773,-0.35547 0,0 -10.00003,-4.10772 -15,-4.46484 -0.3125,-0.0223 -0.74501,-0.0242 -1.28125,-0.006 z"
       transform="scale(0.26458333)"
       id="path938"
       inkscape:connector-curvature="0" />
  </g>
  <g
     inkscape:groupmode="layer"
     id="layer6"
     inkscape:label="Layer 4"
     style="display:inline"
     transform="translate(-1.0839204,-21.077794)"
     sodipodi:insensitive="true">
    <path
       style="fill:#65899e;fill-opacity:0.99497483;stroke:none;stroke-width:0.99999994px;stroke-linecap:butt;stroke-linejoin:miter;stroke-opacity:1"
       d="m 250.87695,117.77148 c -16.56912,-0.33941 -42.84793,5.32862 -51.37109,7.22266 C 132.66431,137.63508 6.5664062,189.39062 6.5664062,189.39062 7.068949,189.27247 134.62649,243.8951 200.99414,252.04297 c 9.09137,2.02031 38.38638,8.333 54.54883,7.07031 16.16244,-1.26269 34.34515,-11.61661 44.69922,-14.39453 10.35406,-2.77792 103.64605,-29.93009 149.35547,-36.49609 37.37436,-5.3687 115.30586,-15.53695 148.85742,-19.07032 l 34.40625,-0.0137 h -20.96094 c -1.36507,0 -4.13715,-0.20479 -7.86914,-0.55078 4.5161,-0.43537 7.81833,-0.68945 9.35937,-0.68945 h 20.95899 l -37.39844,-0.0156 C 563.39124,184.34797 485.47613,174.18038 448.10742,168.8125 402.398,162.2465 309.10601,135.09628 298.75195,132.31836 c -10.35407,-2.77792 -28.53678,-13.13184 -44.69922,-14.39453 -1.01015,-0.0789 -2.07117,-0.12972 -3.17578,-0.15235 z"
       transform="scale(0.26458333)"
       id="path950"
       inkscape:connector-curvature="0"
       sodipodi:nodetypes="ccccsssccscsccsscc" />
  </g>
  <g
     inkscape:groupmode="layer"
     id="layer7"
     inkscape:label="Layer 5"
     style="display:inline"
     transform="translate(-1.0839204,-21.077794)"
     sodipodi:insensitive="true">
    <path
       style="fill:#2d5770;fill-opacity:1;stroke:none;stroke-width:0.99999994px;stroke-linecap:butt;stroke-linejoin:miter;stroke-opacity:1"
       d="M 139.47656,119.36328 C 116.48194,119.01477 5.7148438,131.80469 5.7148438,131.80469 l -0.4121094,58.09179 0.098214,56.09683 c 0,0 119.0561516,13.80844 136.7338216,12.54575 17.67767,-1.26269 52.52933,-11.87071 60.10546,-12.88086 7.57615,-1.01015 19.44536,-0.75626 29.54688,-2.27148 9.62223,-1.44334 297.4483,-48.68191 333.49023,-53.38281 l 90.88868,0.0176 c 28.11297,4.92636 138.25743,31.04099 138.25743,31.04099 0,0 0.0684,-64.1433 -0.15298,-64.23044 0,0 -110.73927,26.20255 -138.83105,31.12305 l -90.875,0.0176 c -36.03356,-4.6995 -323.86978,-51.93945 -333.49218,-53.38282 -10.10152,-1.51522 -21.97073,-1.26133 -29.54688,-2.27148 -7.57614,-1.01015 -42.42585,-11.61817 -60.10351,-12.88086 -0.55243,-0.0395 -1.20356,-0.063 -1.94532,-0.0742 z"
       transform="scale(0.26458333)"
       id="path958"
       inkscape:connector-curvature="0"
       sodipodi:nodetypes="ccccssccccccccsccc" />
  </g>
  <g
     inkscape:groupmode="layer"
     id="layer8"
     inkscape:label="Layer 6"
     style="display:inline"
     transform="translate(-1.0839204,-21.077794)"
     sodipodi:insensitive="true">
    <path
       style="fill:#233945;fill-opacity:0.68341711;stroke:none;stroke-width:0.99999994px;stroke-linecap:butt;stroke-linejoin:miter;stroke-opacity:1"
       d="m 96.517578,127.08789 c -0.177434,0.001 -0.383243,0.006 -0.5625,0.008 -0.647488,0.006 -1.355719,0.0189 -2.02539,0.0274 -1.74575,0.0213 -3.526247,0.047 -5.408204,0.0859 -0.554878,0.0118 -1.124536,0.0278 -1.689453,0.041 -32.534083,0.74105 -81.5605465,3.75977 -81.5605466,3.75977 l -0.7265625,56.14843 0.8027343,60.2461 c 0,0 86.5770238,2.88749 104.7597638,0.86718 18.18275,-2.0203 139.57744,-38.34025 188.85156,-42.88086 43.33383,-4.01869 204.44468,-8.67282 260.48829,-16.26171 -55.75459,-3.65989 -214.64094,-19.67912 -260.19922,-26.64844 -27.27412,-4.04061 -168.93835,-32.94064 -187.1211,-34.96094 -2.27284,-0.25254 -5.62646,-0.3863 -9.75586,-0.42773 -1.80661,-0.0181 -3.766207,-0.0188 -5.853512,-0.004 z"
       transform="scale(0.26458333)"
       id="path965"
       inkscape:connector-curvature="0"
       sodipodi:nodetypes="ccccccccscccccc" />
    <path
       style="fill:#233945;fill-opacity:0.68844222;stroke:none;stroke-width:0.99999994px;stroke-linecap:butt;stroke-linejoin:miter;stroke-opacity:1"
       d="M 794.4581,175.38231 631.8457,188.625 c -0.002,-0.004 162.67383,12.79492 162.67383,12.79492 z"
       transform="scale(0.26458333)"
       id="path972"
       inkscape:connector-curvature="0"
       sodipodi:nodetypes="cccc" />
  </g>
  <g
     inkscape:groupmode="layer"
     id="layer9"
     inkscape:label="Layer 7"
     style="display:inline"
     transform="translate(-1.0839204,-21.077794)"
     sodipodi:insensitive="true">
    <path
       style="fill:#001826;fill-opacity:0.68341711;stroke:none;stroke-width:0.99999994px;stroke-linecap:butt;stroke-linejoin:miter;stroke-opacity:1"
       d="m 5.65625,149.89453 c 0,0 -0.1767011,50.94666 -0.1767011,78.17896 L 282.4899,191.61351 c 1.94454,-1.23744 2.12064,-4.15409 -0.0891,-6.05444 z"
       transform="scale(0.26458333)"
       id="path978"
       inkscape:connector-curvature="0"
       sodipodi:nodetypes="ccccc" />
  </g>
  <g
     inkscape:groupmode="layer"
     id="layer10"
     inkscape:label="Text"
     style="display:inline"
     transform="translate(166.09192,25.357096)" />
</svg>
