<?xml version="1.0" encoding="UTF-8" standalone="no"?>
<!-- Created with Inkscape (http://www.inkscape.org/) -->

<svg
   xmlns:dc="http://purl.org/dc/elements/1.1/"
   xmlns:cc="http://creativecommons.org/ns#"
   xmlns:rdf="http://www.w3.org/1999/02/22-rdf-syntax-ns#"
   xmlns:svg="http://www.w3.org/2000/svg"
   xmlns="http://www.w3.org/2000/svg"
   xmlns:sodipodi="http://sodipodi.sourceforge.net/DTD/sodipodi-0.dtd"
   xmlns:inkscape="http://www.inkscape.org/namespaces/inkscape"
   width="49.355473mm"
   height="28.514545mm"
   viewBox="0 0 49.355473 28.514545"
   version="1.1"
   id="svg1023"
   inkscape:version="0.92.3 (2405546, 2018-03-11)"
   sodipodi:docname="drwellsconsulting_logo_letters.svg">
  <defs
     id="defs1017" />
  <sodipodi:namedview
     id="base"
     pagecolor="#ffffff"
     bordercolor="#666666"
     borderopacity="1.0"
     inkscape:pageopacity="0.0"
     inkscape:pageshadow="2"
     inkscape:zoom="0.98994949"
     inkscape:cx="175.87921"
     inkscape:cy="-78.789578"
     inkscape:document-units="mm"
     inkscape:current-layer="layer1"
     showgrid="false"
     fit-margin-top="0"
     fit-margin-left="0"
     fit-margin-right="0"
     fit-margin-bottom="0"
     inkscape:window-width="1920"
     inkscape:window-height="1017"
     inkscape:window-x="1272"
     inkscape:window-y="-8"
     inkscape:window-maximized="1" />
  <metadata
     id="metadata1020">
    <rdf:RDF>
      <cc:Work
         rdf:about="">
        <dc:format>image/svg+xml</dc:format>
        <dc:type
           rdf:resource="http://purl.org/dc/dcmitype/StillImage" />
        <dc:title></dc:title>
      </cc:Work>
    </rdf:RDF>
  </metadata>
  <g
     inkscape:label="Layer 1"
     inkscape:groupmode="layer"
     id="layer1"
     transform="translate(-8.6864011,-28.085607)">
    <flowRoot
       xml:space="preserve"
       id="flowRoot1025"
       style="font-style:normal;font-variant:normal;font-weight:normal;font-stretch:normal;font-size:16px;line-height:1.25;font-family:'Segoe Print';-inkscape-font-specification:'Segoe Print';letter-spacing:0px;word-spacing:0px;fill:#000000;fill-opacity:1;stroke:none"
       transform="matrix(0.26458333,0,0,0.26458333,-1.7372519,25.390605)"><flowRegion
         id="flowRegion1027"><rect
           id="rect1029"
           width="478.81232"
           height="159.6041"
           x="39.39595"
           y="79.032074" /></flowRegion><flowPara
         id="flowPara1031"
         style="font-style:normal;font-variant:normal;font-weight:normal;font-stretch:normal;font-size:42.66666794px;font-family:sans-serif;-inkscape-font-specification:sans-serif"> </flowPara></flowRoot>    <g
       id="g1066"
       transform="translate(-1.7953869,9.0714286)">
      <path
         d="m 11.567633,28.266336 q 0,2.517676 1.103809,4.564063 1.091406,2.046386 2.91455,3.175 1.26504,0.781347 2.827735,1.128613 1.550293,0.347265 4.092773,0.347265 h 4.663281 V 19.014188 H 22.55611 q -2.703711,0 -4.291211,0.396875 -1.599903,0.384473 -2.703711,1.066601 -1.885156,1.178223 -2.939356,3.137793 -1.054199,1.959571 -1.054199,4.650879 z m 2.567285,-0.03721 q 0,-2.17041 0.756543,-3.658691 0.756543,-1.488281 2.257227,-2.344043 1.091406,-0.620117 2.319238,-0.855762 1.227832,-0.248047 2.939355,-0.248047 h 2.306836 v 14.250293 h -2.306836 q -1.773535,0 -3.088183,-0.260449 -1.327051,-0.260449 -2.430859,-0.967383 -1.376661,-0.880566 -2.058789,-2.319238 -0.694532,-1.438672 -0.694532,-3.59668 z"
         style="font-style:normal;font-variant:normal;font-weight:normal;font-stretch:normal;font-size:25.39999962px;line-height:1.25;font-family:sans-serif;-inkscape-font-specification:sans-serif;letter-spacing:0px;word-spacing:0px;fill:#000000;fill-opacity:1;stroke:none;stroke-width:0.26458332"
         id="path1041"
         inkscape:connector-curvature="0" />
      <path
         sodipodi:nodetypes="cccccccccccscccccccccscccc"
         inkscape:connector-curvature="0"
         id="path1043"
         transform="scale(0.26458333)"
         d="m 121.67188,71.865234 -11.4004,0.04492 0.0324,7.974889 c 0,0 8.02328,-0.05106 12.02427,-0.05106 2.5,0 4.67188,0.187496 6.51563,0.5625 1.84375,0.343752 3.4375,0.968749 4.78125,1.875 1.625,1.062501 2.78125,2.375002 3.46875,3.9375 0.71873,1.53125 1.07813,3.296874 1.07813,5.296875 -1e-5,2.624999 -0.34376,4.796874 -1.03126,6.515625 -0.65625,1.687499 -1.6875,3.187497 -3.09374,4.499997 -1.53125,1.40625 -3.39063,2.375 -5.57813,2.90625 -2.1875,0.49999 -4.75,0.75 -7.6875,0.75 h -6.49609 v 0.002 h -3.93714 l -0.0104,7.73242 h 14.14676 l 23.34374,27.75 8.85743,-2.97461 -23.06055,-27.54102 c 4.4375,-1.71875 7.92187,-4.26562 10.45312,-7.64062 2.53126,-3.40625 3.79688,-7.625001 3.79688,-12.656252 0,-3.718749 -0.71875,-6.781252 -2.15625,-9.1875 -1.40625,-2.4375 -3.375,-4.453123 -5.90625,-6.046875 -2.25,-1.406248 -4.78125,-2.374999 -7.59375,-2.90625 -2.8125,-0.562514 -6.32816,-0.86038 -10.54687,-0.84375 z"
         style="font-style:normal;font-variant:normal;font-weight:normal;font-stretch:normal;font-size:25.39999962px;line-height:1.25;font-family:sans-serif;-inkscape-font-specification:sans-serif;letter-spacing:0px;word-spacing:0px;fill:#000000;fill-opacity:1;stroke:none;stroke-width:0.99999994" />
      <path
         sodipodi:nodetypes="ccccccccccc"
         d="m 59.83726,19.108682 -8.106999,18.372595 h -2.765723 l -3.881934,-9.282323 -3.795117,9.282323 h -2.174544 l 4.536571,-11.250812 3.060819,-0.03341 3.556451,8.32006 7.034144,-15.455682 z"
         style="font-style:normal;font-variant:normal;font-weight:normal;font-stretch:normal;font-size:25.39999962px;line-height:1.25;font-family:sans-serif;-inkscape-font-specification:sans-serif;letter-spacing:0px;word-spacing:0px;fill:#000000;fill-opacity:1;stroke:none;stroke-width:0.26458332"
         id="path1045"
         inkscape:connector-curvature="0" />
    </g>
    <text
       id="text1039"
       y="54.279442"
       x="10.373375"
       style="font-style:normal;font-variant:normal;font-weight:normal;font-stretch:normal;font-size:4.25488472px;line-height:1.25;font-family:'Segoe Print';-inkscape-font-specification:'Segoe Print';letter-spacing:0px;word-spacing:0px;fill:#000000;fill-opacity:1;stroke:none;stroke-width:0.26593029"
       xml:space="preserve"
       transform="scale(1.005091,0.99493483)"><tspan
         style="font-style:normal;font-variant:normal;font-weight:normal;font-stretch:normal;font-size:7.09147501px;font-family:sans-serif;-inkscape-font-specification:sans-serif;stroke-width:0.26593029"
         y="54.279442"
         x="10.373375"
         id="tspan1037"
         sodipodi:role="line">CONSULTING</tspan></text>
  </g>
</svg>
